<svg xmlns="http://www.w3.org/2000/svg" width="117" height="30" viewBox="0 0 117 30" fill="none">
<g clip-path="url(#clip0)">
<path d="M15.1211 13.5839H22.9981C24.1985 13.5648 25.354 14.2193 25.9703 15.2531L29.9441 22.0451C31.228 24.3239 29.7257 27.1229 27.0038 27.1999H19.2105C18.0034 27.2127 16.8545 26.5837 16.2189 25.5307L12.2386 18.7452C11.1025 16.9479 12.0718 13.783 15.1211 13.5839Z" fill="white"/>
<path d="M15.1206 13.5834H22.9976C24.198 13.5643 25.3536 14.2191 25.9698 15.2526L27.0034 17.018L29.9437 11.9915C31.2276 9.70601 29.7253 6.91344 27.0034 6.83637H19.21C18.003 6.8236 16.8541 7.45266 16.2184 8.50557L12.2382 15.2911C11.9302 15.7855 11.776 16.3824 11.7824 16.9923C11.8209 15.3937 12.9315 13.7248 15.1206 13.5834Z" fill="#C9EAED"/>
<path d="M11.7825 17.0434C11.7825 17.037 11.7825 17.0243 11.7825 17.0179C11.7825 17.0049 11.7825 16.9985 11.7825 16.9921C11.7761 16.3822 11.9302 15.7853 12.2383 15.291L16.2185 8.50541C16.8539 7.4525 18.0095 6.82344 19.2101 6.83621H21.1103L18.17 1.71347C16.7513 -0.610559 13.5864 -0.533498 12.2447 1.71985L8.32234 8.53757C7.73181 9.58387 7.7382 10.919 8.35449 11.9528L12.1163 18.5199C11.8917 18.0769 11.7761 17.5635 11.7825 17.0434Z" fill="#94D6DC"/>
<path d="M12.2386 18.7447C12.1937 18.6677 12.1552 18.597 12.1166 18.5199L8.35461 11.9528C7.73832 10.9192 7.73193 9.58384 8.32268 8.53753L9.30492 6.83618H3.40514C0.683249 6.91325 -0.818826 9.70582 0.465053 11.9913L4.43867 18.7833C5.05496 19.8168 6.21047 20.4716 7.4109 20.4522H13.2464L12.2386 18.7447Z" fill="#55C5CE"/>
<path d="M13.2464 20.452H7.4109C6.21047 20.4713 5.05496 19.8165 4.43867 18.783L3.40514 17.0176L0.465053 22.0441C-0.818826 24.323 0.683249 27.1219 3.40514 27.199H11.2051C12.4055 27.2118 13.5546 26.5827 14.1901 25.53L15.2045 23.7965L13.2464 20.452Z" fill="#00B7C1"/>
<path d="M44.0343 26.8717H43.187L43.9123 21.6653H44.8624L45.8191 25.0486L47.7448 21.6653H48.7015L47.976 26.8717H47.1221L47.4495 24.4836L47.8155 23.0714H47.7384L47.1287 24.3039L46.0115 26.1526H45.3439L44.747 24.3039L44.49 23.052H44.4132L44.3617 24.49L44.0343 26.8717Z" fill="white"/>
<path d="M51.1534 21.7947H52.0779L51.0699 22.8282H50.3253L51.1534 21.7947ZM51.3139 23.836C51.2049 23.7783 51.0699 23.7398 50.9096 23.727C50.7555 23.7076 50.595 23.714 50.4409 23.7525C50.2867 23.7911 50.152 23.8554 50.0364 23.9516C49.9144 24.048 49.8504 24.1764 49.8246 24.3433L49.6513 25.6208C49.6255 25.7941 49.6641 25.9224 49.7605 26.0059C49.8567 26.0893 49.9851 26.1406 50.1392 26.16C50.2867 26.1728 50.4473 26.16 50.6078 26.1151C50.7747 26.0766 50.9096 26.0123 51.0186 25.9288L51.3139 23.836ZM51.0314 26.8725L50.9737 26.5451C50.8326 26.6801 50.6785 26.7763 50.5052 26.834C50.3383 26.8983 50.1714 26.9238 50.0045 26.9238C49.8374 26.9174 49.6771 26.8919 49.5229 26.8276C49.3752 26.7635 49.2404 26.6801 49.1312 26.5645C49.0222 26.4553 48.9388 26.3205 48.8873 26.16C48.8296 25.9995 48.8232 25.8198 48.8487 25.6208L49.0286 24.356C49.0608 24.1057 49.1312 23.8939 49.2468 23.727C49.3624 23.5537 49.4972 23.4187 49.6577 23.3097C49.8182 23.2069 49.9979 23.1298 50.1969 23.0913C50.396 23.0464 50.6014 23.0209 50.8068 23.0209C51.038 23.0209 51.282 23.0528 51.5193 23.1171C51.7633 23.1814 51.9817 23.2648 52.1741 23.3611L51.6862 26.8725H51.0314Z" fill="white"/>
<path d="M53.0479 25.6521C53.125 25.8254 53.2342 25.9538 53.3817 26.05C53.5295 26.14 53.677 26.1913 53.8311 26.1977C53.9789 26.2105 54.12 26.1784 54.242 26.1079C54.3703 26.0436 54.4474 25.928 54.4732 25.7741C54.4859 25.7034 54.4732 25.6457 54.441 25.6006C54.4089 25.5493 54.3703 25.5108 54.3127 25.4786C54.2613 25.4467 54.1971 25.4209 54.1328 25.4018C54.0687 25.3824 54.0044 25.3696 53.9403 25.3502C53.8056 25.3311 53.6642 25.2926 53.5167 25.2476C53.369 25.1963 53.2278 25.1321 53.1058 25.0486C52.9772 24.9588 52.881 24.8496 52.8103 24.7084C52.7399 24.5671 52.7205 24.3938 52.7463 24.1756C52.7784 23.9638 52.8425 23.7839 52.9517 23.6363C53.0607 23.495 53.1893 23.373 53.3368 23.2768C53.4909 23.187 53.6514 23.1163 53.8247 23.0777C53.998 23.0328 54.1649 23.0137 54.3254 23.0137C54.5372 23.0137 54.7427 23.0586 54.9481 23.1484C55.1535 23.2319 55.3334 23.373 55.5003 23.5593L54.9417 24.0857C54.8519 23.9829 54.7299 23.9059 54.5888 23.8482C54.441 23.7903 54.2933 23.7647 54.1521 23.7647C54.011 23.7647 53.8824 23.7903 53.767 23.8482C53.6578 23.9059 53.5871 23.9893 53.555 24.1113C53.5358 24.1947 53.5422 24.2654 53.5808 24.3231C53.6129 24.381 53.6642 24.4323 53.7285 24.4645C53.7862 24.503 53.8633 24.5351 53.9403 24.5543C54.0238 24.5801 54.1008 24.5928 54.1843 24.612C54.3254 24.6313 54.4732 24.6699 54.6143 24.7148C54.7557 24.7597 54.884 24.8304 54.993 24.9202C55.0958 25.0037 55.1793 25.1193 55.2306 25.254C55.2885 25.3888 55.3013 25.5557 55.2755 25.7547C55.2434 26.0051 55.1535 26.2105 55.0188 26.3838C54.884 26.5507 54.7171 26.6857 54.5245 26.7819C54.3382 26.8717 54.1328 26.9296 53.9082 26.9488C53.69 26.9681 53.4782 26.9488 53.2791 26.8847C53.0737 26.8268 52.8938 26.7242 52.7333 26.5828C52.573 26.4417 52.4574 26.2618 52.3867 26.0436L53.0479 25.6521Z" fill="white"/>
<path d="M57.1816 27.655C57.3164 27.5588 57.3998 27.4432 57.4384 27.3212C57.4769 27.1928 57.5027 27.0902 57.5091 27.0068L58.0804 22.9623C58.106 22.7441 58.1766 22.5514 58.2795 22.3845C58.3885 22.224 58.5168 22.0829 58.671 21.9803C58.8315 21.871 59.0111 21.7876 59.2038 21.7297C59.4028 21.672 59.6146 21.6462 59.8328 21.6462L59.7239 22.4424C59.4991 22.4424 59.3066 22.4873 59.1525 22.5772C58.992 22.667 58.9021 22.7954 58.8828 22.9623L58.8057 23.5017H59.5312L59.422 24.2913H58.6967L58.3114 27.0068C58.2473 27.4947 57.9712 27.8798 57.4897 28.1559L57.1816 27.655Z" fill="white"/>
<path d="M61.9331 21.7947H62.8577L61.8497 22.8282H61.1114L61.9331 21.7947ZM62.0936 23.836C61.9844 23.7783 61.8497 23.7398 61.6955 23.727C61.5353 23.7076 61.3748 23.714 61.2206 23.7525C61.0665 23.7911 60.9317 23.8554 60.8161 23.9516C60.6942 24.048 60.6301 24.1764 60.6107 24.3433L60.4311 25.6208C60.4053 25.7941 60.4438 25.9224 60.54 26.0059C60.6429 26.0893 60.7649 26.1406 60.919 26.16C61.0665 26.1728 61.227 26.16 61.3939 26.1151C61.5544 26.0766 61.6892 26.0123 61.7984 25.9288L62.0936 23.836ZM61.8175 26.8725L61.7535 26.5451C61.6121 26.6801 61.4582 26.7763 61.2913 26.834C61.1178 26.8983 60.9509 26.9238 60.784 26.9238C60.6171 26.9174 60.4566 26.8919 60.3091 26.8276C60.1549 26.7635 60.0266 26.6801 59.911 26.5645C59.8018 26.4553 59.7183 26.3205 59.667 26.16C59.6157 25.9995 59.6029 25.8198 59.6285 25.6208L59.8084 24.356C59.8403 24.1057 59.9174 23.8939 60.0266 23.727C60.1422 23.5537 60.2769 23.4187 60.4374 23.3097C60.6043 23.2069 60.784 23.1298 60.9767 23.0913C61.1757 23.0464 61.3811 23.0209 61.5866 23.0209C61.8241 23.0209 62.0615 23.0528 62.3055 23.1171C62.543 23.1814 62.7612 23.2648 62.9539 23.3611L62.466 26.8725H61.8175Z" fill="white"/>
<path d="M63.3893 25.6194L63.5626 24.3292C63.5948 24.1108 63.6652 23.9183 63.7744 23.7514C63.8836 23.5909 64.0184 23.4496 64.1725 23.347C64.333 23.2377 64.4999 23.1543 64.686 23.103C64.8723 23.0453 65.0583 23.0195 65.2446 23.0195C65.3921 23.0195 65.5399 23.0387 65.694 23.0772C65.8415 23.1158 65.9765 23.1737 66.0982 23.2507C66.2202 23.3276 66.3294 23.4304 66.4193 23.5588C66.5027 23.6871 66.5606 23.8413 66.5861 24.0209L65.816 24.297C65.7902 24.1238 65.7067 23.9954 65.572 23.9183C65.4306 23.8413 65.2831 23.8027 65.1162 23.8091C64.9557 23.8219 64.8016 23.867 64.6538 23.9569C64.5127 24.0403 64.4165 24.1687 64.3716 24.3228L64.1917 25.6258C64.1917 25.7287 64.2174 25.8185 64.2751 25.8892C64.3264 25.9662 64.4035 26.0303 64.4869 26.0688C64.577 26.1138 64.6796 26.1331 64.7888 26.1395C64.8978 26.1459 65.007 26.1265 65.1162 26.0946C65.2252 26.0624 65.3217 26.0045 65.4115 25.9341C65.5013 25.857 65.572 25.7608 65.6233 25.6452L66.3358 25.9277C66.2587 26.1074 66.1561 26.2615 66.0342 26.3899C65.9122 26.5182 65.7774 26.6208 65.6297 26.6979C65.4822 26.7749 65.328 26.8329 65.1675 26.8714C65.007 26.9097 64.8529 26.9227 64.7054 26.9227C64.5191 26.9227 64.3394 26.8969 64.1661 26.8456C63.9926 26.7877 63.8451 26.7109 63.7231 26.6017C63.5948 26.4925 63.5047 26.3577 63.4406 26.1908C63.3763 26.0303 63.3572 25.8376 63.3893 25.6194Z" fill="white"/>
<path d="M67.383 22.179C67.4024 22.0313 67.4728 21.9029 67.582 21.8067C67.6912 21.7102 67.8196 21.6589 67.9607 21.6589C68.1149 21.6589 68.2305 21.7102 68.3139 21.8067C68.3973 21.9029 68.4295 22.0313 68.4037 22.179C68.3846 22.3201 68.3203 22.4421 68.2047 22.5386C68.0957 22.6412 67.9671 22.6925 67.8132 22.6925C67.6719 22.6925 67.5563 22.6412 67.4794 22.5386C67.396 22.4421 67.3638 22.3201 67.383 22.179ZM68.1792 23.0584L67.6527 26.8717H66.8438L67.3702 23.0584H68.1792Z" fill="white"/>
<path d="M69.9319 26.9039C69.4568 26.9039 69.1102 26.7883 68.8854 26.5571C68.6672 26.3197 68.5838 26.0051 68.6481 25.5942L69.1937 21.6653H70.009L69.4568 25.5942C69.4313 25.7547 69.4632 25.8831 69.5532 25.9857C69.6431 26.0949 69.8036 26.1462 70.0346 26.1462L69.9319 26.9039Z" fill="white"/>
<path d="M70.8754 25.8447H71.7933L70.8754 27.7704H70.0601L70.8754 25.8447Z" fill="white"/>
<path d="M74.8421 23.4501C75.022 23.3281 75.2338 23.2319 75.4714 23.1612C75.7088 23.0906 75.9463 23.052 76.1775 23.0457C76.4021 23.0457 76.6139 23.0842 76.813 23.1676C77.0056 23.2447 77.1468 23.3794 77.2368 23.5721C77.3522 23.431 77.4936 23.3154 77.6605 23.2319C77.8337 23.1485 78.007 23.097 78.1933 23.0778C78.3793 23.052 78.5592 23.065 78.7389 23.1099C78.9186 23.1549 79.0727 23.2255 79.2074 23.3281C79.3424 23.431 79.445 23.5657 79.5221 23.7326C79.5928 23.8995 79.6119 24.0986 79.58 24.3231L79.2268 26.8718H78.4243L78.7774 24.3553C78.8032 24.2397 78.7902 24.1435 78.7389 24.0728C78.694 24.0021 78.6233 23.9444 78.5335 23.9059C78.4436 23.8737 78.3474 23.8546 78.2382 23.8546C78.129 23.861 78.02 23.8801 77.9236 23.9123C77.821 23.9508 77.7311 24.0021 77.6605 24.0728C77.5834 24.1435 77.5449 24.2269 77.5257 24.3231L77.1725 26.8718H76.383L76.7425 24.3104C76.7617 24.1756 76.7295 24.0664 76.6591 23.9894C76.582 23.9059 76.4792 23.8546 76.3636 23.8225C76.2416 23.7967 76.1068 23.7903 75.9657 23.8097C75.818 23.8352 75.6896 23.8801 75.5612 23.9572L75.1568 26.8718H74.3672L74.8421 23.4501Z" fill="white"/>
<path d="M82.366 21.7947H83.2904L82.2826 22.8282H81.5443L82.366 21.7947ZM82.5266 23.836C82.4173 23.7783 82.289 23.7398 82.1285 23.727C81.9679 23.7076 81.814 23.714 81.6599 23.7525C81.4994 23.7911 81.3647 23.8554 81.2491 23.9516C81.1335 24.048 81.0628 24.1764 81.0436 24.3433L80.864 25.6208C80.8446 25.7941 80.8767 25.9224 80.9793 26.0059C81.0758 26.0893 81.1978 26.1406 81.3517 26.16C81.5058 26.1728 81.6599 26.16 81.8268 26.1151C81.9873 26.0766 82.1285 26.0123 82.2313 25.9288L82.5266 23.836ZM82.2504 26.8725L82.1928 26.5451C82.045 26.6801 81.8909 26.7763 81.724 26.834C81.5507 26.8983 81.3838 26.9238 81.2169 26.9238C81.05 26.9174 80.8959 26.8919 80.742 26.8276C80.5879 26.7635 80.4595 26.6801 80.3503 26.5645C80.2347 26.4553 80.1576 26.3205 80.0999 26.16C80.0486 25.9995 80.0356 25.8198 80.0678 25.6208L80.2411 24.356C80.2732 24.1057 80.3503 23.8939 80.4595 23.727C80.5749 23.5537 80.7098 23.4187 80.8767 23.3097C81.0372 23.2069 81.2169 23.1298 81.416 23.0913C81.615 23.0464 81.8141 23.0209 82.0195 23.0209C82.2568 23.0209 82.4944 23.0528 82.7384 23.1171C82.9823 23.1814 83.1941 23.2648 83.3868 23.3611L82.9053 26.8725H82.2504Z" fill="white"/>
<path d="M84.2667 25.6521C84.3374 25.8254 84.4464 25.9538 84.5941 26.05C84.7419 26.14 84.8894 26.1913 85.0435 26.1977C85.1976 26.2105 85.3324 26.1784 85.4607 26.1079C85.5827 26.0436 85.6598 25.928 85.6919 25.7741C85.6983 25.7034 85.6919 25.6457 85.6598 25.6006C85.6276 25.5493 85.5827 25.5108 85.5314 25.4786C85.4735 25.4467 85.4158 25.4209 85.3451 25.4018C85.2811 25.3824 85.2168 25.3696 85.1527 25.3502C85.0241 25.3311 84.883 25.2926 84.7289 25.2476C84.5813 25.1963 84.4464 25.1321 84.318 25.0486C84.196 24.9588 84.0934 24.8496 84.0227 24.7084C83.9521 24.5671 83.9329 24.3938 83.9651 24.1756C83.9906 23.9638 84.0613 23.7839 84.1705 23.6363C84.2731 23.495 84.4014 23.373 84.5556 23.2768C84.7033 23.187 84.8638 23.1163 85.0371 23.0777C85.2104 23.0328 85.3837 23.0137 85.5442 23.0137C85.7496 23.0137 85.9551 23.0586 86.1605 23.1484C86.3659 23.2319 86.5522 23.373 86.7125 23.5593L86.1541 24.0857C86.0643 23.9829 85.9487 23.9059 85.8009 23.8482C85.6534 23.7903 85.5057 23.7647 85.3645 23.7647C85.2232 23.7647 85.0948 23.7903 84.9858 23.8482C84.8702 23.9059 84.7995 23.9893 84.7738 24.1113C84.7546 24.1947 84.761 24.2654 84.7932 24.3231C84.8253 24.381 84.8766 24.4323 84.9407 24.4645C85.005 24.503 85.0757 24.5351 85.1591 24.5543C85.2362 24.5801 85.3196 24.5928 85.3967 24.612C85.5442 24.6313 85.6856 24.6699 85.8331 24.7148C85.9744 24.7597 86.0964 24.8304 86.2054 24.9202C86.3146 25.0037 86.3917 25.1193 86.4494 25.254C86.5007 25.3888 86.5137 25.5557 86.4943 25.7547C86.4558 26.0051 86.3723 26.2105 86.2375 26.3838C86.0964 26.5507 85.9359 26.6857 85.7432 26.7819C85.5506 26.8717 85.3452 26.9296 85.127 26.9488C84.9024 26.9681 84.6903 26.9488 84.4915 26.8847C84.2925 26.8268 84.1062 26.7242 83.9457 26.5828C83.7852 26.4417 83.6698 26.2618 83.5991 26.0436L84.2667 25.6521Z" fill="white"/>
<path d="M89.2999 25.6521C89.3769 25.8254 89.4862 25.9538 89.6337 26.05C89.7814 26.14 89.9289 26.1913 90.0831 26.1977C90.2308 26.2105 90.3719 26.1784 90.4939 26.1079C90.6223 26.0436 90.6994 25.928 90.7251 25.7741C90.7379 25.7034 90.7251 25.6457 90.693 25.6006C90.6608 25.5493 90.6223 25.5108 90.5646 25.4786C90.5133 25.4467 90.449 25.4209 90.3849 25.4018C90.3206 25.3824 90.2563 25.3696 90.1923 25.3502C90.0575 25.3311 89.9162 25.2926 89.7686 25.2476C89.6209 25.1963 89.4798 25.1321 89.3578 25.0486C89.2292 24.9588 89.133 24.8496 89.0623 24.7084C88.9918 24.5671 88.9725 24.3938 88.9982 24.1756C89.0304 23.9638 89.0944 23.7839 89.2037 23.6363C89.3129 23.495 89.4412 23.373 89.5888 23.2768C89.7429 23.187 89.9034 23.1163 90.0767 23.0777C90.25 23.0328 90.4169 23.0137 90.5838 23.0137C90.7892 23.0137 90.9946 23.0586 91.2 23.1484C91.4055 23.2319 91.5854 23.373 91.7523 23.5593L91.1937 24.0857C91.1038 23.9829 90.9818 23.9059 90.8407 23.8482C90.693 23.7903 90.5452 23.7647 90.4041 23.7647C90.263 23.7647 90.1344 23.7903 90.019 23.8482C89.9098 23.9059 89.8391 23.9893 89.8072 24.1113C89.7878 24.1947 89.7942 24.2654 89.8327 24.3231C89.8649 24.381 89.9162 24.4323 89.9805 24.4645C90.0445 24.503 90.1152 24.5351 90.1923 24.5543C90.2757 24.5801 90.3528 24.5928 90.4362 24.612C90.5837 24.6313 90.7251 24.6699 90.8662 24.7148C91.0076 24.7597 91.136 24.8304 91.245 24.9202C91.3478 25.0037 91.4312 25.1193 91.4825 25.254C91.5404 25.3888 91.5532 25.5557 91.5274 25.7547C91.4955 26.0051 91.4121 26.2105 91.2707 26.3838C91.136 26.5507 90.9691 26.6857 90.7764 26.7819C90.5904 26.8717 90.3849 26.9296 90.1601 26.9488C89.9419 26.9681 89.7301 26.9488 89.5311 26.8847C89.3256 26.8268 89.1457 26.7242 88.9855 26.5828C88.8249 26.4417 88.7094 26.2618 88.6387 26.0436L89.2999 25.6521Z" fill="white"/>
<path d="M92.9334 24.7279C93.0299 24.76 93.1388 24.7856 93.2608 24.8177C93.3828 24.8435 93.4984 24.8626 93.6076 24.8626C93.7038 24.8626 93.7937 24.8499 93.8835 24.8305C93.9733 24.8113 94.0504 24.7792 94.1211 24.7342C94.1917 24.6893 94.2494 24.638 94.3007 24.5673C94.3457 24.5031 94.3778 24.426 94.3908 24.3298C94.4036 24.2399 94.3972 24.1565 94.365 24.0794C94.3329 24.0088 94.288 23.9447 94.2303 23.8998C94.166 23.8482 94.1019 23.8099 94.0248 23.7842C93.9414 23.7648 93.858 23.752 93.7745 23.752C93.6845 23.752 93.5946 23.7648 93.5048 23.7842C93.4213 23.8099 93.3379 23.8482 93.2672 23.8998C93.1901 23.9511 93.1325 24.0154 93.0812 24.0858C93.0299 24.1629 92.9977 24.2463 92.9847 24.3425L92.9334 24.7279ZM94.7501 26.2108C94.5511 26.4611 94.3265 26.6408 94.0762 26.7564C93.8194 26.872 93.5691 26.9361 93.3187 26.9361C93.1325 26.9361 92.9528 26.9041 92.7859 26.8462C92.6124 26.7949 92.4649 26.7115 92.3429 26.5959C92.2145 26.4869 92.1247 26.3519 92.0604 26.185C92.0027 26.0245 91.9833 25.8321 92.0155 25.6073L92.1888 24.3555C92.2209 24.1244 92.2916 23.9317 92.4006 23.7584C92.5098 23.5915 92.6445 23.4504 92.7987 23.3348C92.9592 23.2256 93.1325 23.1421 93.3187 23.0844C93.5048 23.0265 93.6911 23.001 93.8835 23.001C94.0762 23.001 94.2558 23.0265 94.4227 23.0844C94.5896 23.1421 94.7374 23.2256 94.8657 23.3348C94.9877 23.444 95.0839 23.5851 95.1418 23.752C95.1995 23.9189 95.2125 24.1116 95.1867 24.3298C95.161 24.5097 95.1033 24.6636 95.0199 24.8049C94.93 24.9461 94.8272 25.0617 94.6988 25.1643C94.5705 25.2671 94.4293 25.3442 94.2752 25.4082C94.1211 25.4661 93.9606 25.511 93.7937 25.5238C93.6268 25.5432 93.4599 25.5432 93.2993 25.5174C93.1324 25.4983 92.9783 25.4531 92.8372 25.3827L92.8114 25.6073C92.7859 25.7806 92.8244 25.9155 92.9206 26.0181C93.0232 26.121 93.1516 26.1786 93.3057 26.2044C93.4599 26.2236 93.6268 26.2044 93.8 26.1401C93.9733 26.0824 94.1147 25.9796 94.2367 25.8321L94.7501 26.2108Z" fill="white"/>
<path d="M98.0555 23.8614C97.9721 23.7908 97.8501 23.7458 97.7023 23.7203C97.5548 23.6945 97.4007 23.7009 97.2532 23.7267C97.1054 23.7588 96.9707 23.8165 96.8551 23.9128C96.7331 24.0028 96.6624 24.1376 96.6369 24.3045L96.4506 25.6269C96.4314 25.781 96.4697 25.903 96.5662 25.9928C96.656 26.0826 96.7716 26.1403 96.9128 26.1661C97.0477 26.1982 97.1952 26.1982 97.3494 26.1725C97.5099 26.1469 97.6446 26.0954 97.7539 26.025L98.0555 23.8614ZM95.9563 27.1034C96.0461 27.2575 96.1875 27.3729 96.3608 27.463C96.5404 27.5464 96.7203 27.585 96.9064 27.5783C97.086 27.572 97.2532 27.5079 97.4007 27.3795C97.5484 27.2575 97.6446 27.0649 97.6768 26.8018C97.4264 26.898 97.1695 26.9429 96.9128 26.9365C96.656 26.9301 96.4248 26.8722 96.226 26.7696C96.027 26.6668 95.8665 26.5193 95.7572 26.3266C95.6416 26.1339 95.6097 25.8966 95.6482 25.6205L95.8279 24.3045C95.8665 24.0541 95.9435 23.8423 96.0719 23.6624C96.2002 23.4891 96.3544 23.348 96.534 23.2452C96.7203 23.1359 96.9191 23.0591 97.1376 23.0142C97.3558 22.969 97.574 22.9563 97.7924 22.969C98.0106 22.982 98.216 23.0206 98.4214 23.0846C98.6205 23.1489 98.7938 23.2388 98.9349 23.3544L98.4406 26.8722C98.4021 27.1611 98.3122 27.3987 98.1711 27.5913C98.0233 27.7774 97.8564 27.9315 97.664 28.0407C97.4714 28.1497 97.2595 28.2204 97.0347 28.2526C96.8038 28.2847 96.5853 28.2781 96.3735 28.2332C96.1617 28.1946 95.9691 28.1112 95.7958 28.0022C95.6225 27.8866 95.4941 27.7452 95.4043 27.5656L95.9563 27.1034Z" fill="white"/>
<path d="M102.241 26.6341C102.022 26.7239 101.791 26.801 101.554 26.8523C101.316 26.9036 101.085 26.9357 100.867 26.9421C100.649 26.9487 100.437 26.9357 100.244 26.8908C100.052 26.8523 99.8846 26.7752 99.7499 26.6726C99.6151 26.5698 99.5123 26.4286 99.4416 26.2554C99.3775 26.0885 99.3648 25.8764 99.3967 25.6261L99.7562 23.0647H100.565L100.206 25.6391C100.193 25.793 100.225 25.9216 100.315 26.0114C100.398 26.1076 100.507 26.1719 100.642 26.2104C100.777 26.249 100.925 26.2554 101.085 26.236C101.246 26.2232 101.387 26.1783 101.515 26.114L101.939 23.0647H102.741L102.241 26.6341Z" fill="white"/>
<path d="M104.642 23.0651C104.681 23.0587 104.732 23.0459 104.803 23.0459C104.873 23.0396 104.937 23.0396 104.995 23.0396C105.053 23.0396 105.123 23.0396 105.188 23.0459C105.258 23.0459 105.335 23.0587 105.419 23.0781L105.316 23.797C105.22 23.7648 105.104 23.7521 104.976 23.7584C104.847 23.7648 104.725 23.7906 104.61 23.8355C104.494 23.8804 104.392 23.9511 104.302 24.0346C104.218 24.1244 104.167 24.2336 104.154 24.362L103.801 26.872H102.992L103.345 24.3426C103.384 24.0731 103.486 23.8355 103.64 23.6428C103.801 23.4504 103.994 23.3027 104.212 23.2001C104.27 23.1679 104.334 23.1421 104.398 23.123C104.462 23.1036 104.526 23.0908 104.597 23.0717C104.603 23.0717 104.61 23.0717 104.616 23.0717C104.623 23.0651 104.629 23.0651 104.642 23.0651Z" fill="white"/>
<path d="M107.248 23.7654C107.164 23.7654 107.081 23.7782 106.997 23.7973C106.907 23.8231 106.83 23.8552 106.753 23.9001C106.683 23.9387 106.625 23.9964 106.574 24.0607C106.522 24.1313 106.49 24.2082 106.477 24.2918L106.285 25.627C106.278 25.7105 106.285 25.7939 106.317 25.8646C106.349 25.9351 106.394 25.993 106.458 26.0443C106.516 26.0956 106.586 26.1277 106.663 26.1535C106.747 26.179 106.83 26.192 106.914 26.192C106.991 26.192 107.074 26.179 107.158 26.1535C107.241 26.1277 107.318 26.0956 107.395 26.0443C107.466 25.993 107.524 25.9351 107.575 25.8646C107.626 25.7939 107.659 25.7105 107.671 25.627L107.857 24.2918C107.877 24.2082 107.864 24.1313 107.832 24.0607C107.793 23.9964 107.748 23.9387 107.69 23.9001C107.633 23.8552 107.562 23.8231 107.485 23.7973C107.408 23.7782 107.325 23.7654 107.248 23.7654ZM105.668 24.2918C105.7 24.0734 105.765 23.881 105.88 23.7205C105.989 23.56 106.124 23.425 106.278 23.3096C106.432 23.2004 106.606 23.117 106.798 23.0657C106.984 23.0077 107.171 22.9758 107.357 22.9758C107.543 22.9758 107.716 23.0077 107.89 23.0657C108.063 23.117 108.211 23.2004 108.333 23.3096C108.461 23.425 108.551 23.56 108.615 23.7205C108.679 23.881 108.699 24.0734 108.666 24.2918L108.48 25.627C108.448 25.8452 108.377 26.0379 108.268 26.2048C108.159 26.3653 108.024 26.5064 107.864 26.6156C107.71 26.7249 107.537 26.8083 107.35 26.8596C107.164 26.9173 106.984 26.9431 106.798 26.9431C106.612 26.9431 106.432 26.9173 106.259 26.8596C106.086 26.8083 105.938 26.7249 105.81 26.6156C105.688 26.5064 105.591 26.3653 105.527 26.2048C105.463 26.0379 105.45 25.8452 105.476 25.627L105.668 24.2918Z" fill="white"/>
<path d="M38.456 11.6265C38.7385 11.6265 38.9888 11.5688 39.2006 11.4405C39.4124 11.3185 39.5793 11.1644 39.7013 10.9847C39.8233 10.7984 39.9004 10.5994 39.9325 10.3812C39.9583 10.1694 39.9453 9.97031 39.8748 9.78403C39.8105 9.59798 39.6886 9.44385 39.5089 9.32187C39.329 9.19989 39.098 9.13582 38.8092 9.13582H37.1979L36.8383 11.6265H38.456ZM42.6353 17.4492H39.207L36.9924 13.9955H36.5045L36.0294 17.4492H33.2432L34.7646 6.57422H39.1172C39.6822 6.57422 40.1956 6.63851 40.658 6.77326C41.1266 6.90801 41.518 7.11344 41.8455 7.40232C42.1665 7.69143 42.3977 8.05714 42.5452 8.51292C42.6866 8.96892 42.7187 9.51454 42.648 10.15C42.5069 11.1644 42.205 11.9603 41.7429 12.5445C41.2807 13.1222 40.7093 13.5139 40.0224 13.7194L42.6353 17.4492Z" fill="white"/>
<path d="M51.9689 9.15581H47.1734L46.9424 10.7865H51.8276L51.4874 13.2259H46.602L46.371 14.8565H51.1664L50.8134 17.4501H43.2383L44.7597 6.55591H52.3349L51.9689 9.15581Z" fill="white"/>
<path d="M56.5912 14.8685C56.97 14.8685 57.3037 14.7786 57.599 14.5924C57.8879 14.4063 58.0548 14.1687 58.0997 13.8735L58.6198 10.2143C58.6583 9.91901 58.5621 9.66205 58.3309 9.45024C58.0933 9.24481 57.7853 9.13582 57.4066 9.13582H56.0071L55.1918 14.8685H56.5912ZM52.0718 17.4492L53.5932 6.57422H57.6697C58.2089 6.57422 58.729 6.6449 59.2169 6.78626C59.7112 6.92739 60.1348 7.15197 60.4814 7.44746C60.8282 7.74273 61.0913 8.12144 61.2646 8.57722C61.4381 9.03299 61.4764 9.5786 61.3866 10.2143L60.8667 13.8735C60.7703 14.4961 60.5779 15.0354 60.2824 15.4848C59.9807 15.9342 59.6212 16.3065 59.1911 16.6017C58.7611 16.8906 58.2796 17.1088 57.7531 17.2438C57.2267 17.3849 56.6875 17.4492 56.1482 17.4492H52.0718Z" fill="white"/>
<path d="M70.2846 9.15581H65.489L65.2578 10.7865H69.6683L69.3279 13.2259H64.9176L64.6867 14.8565H69.482L69.1289 17.4501H61.5537L63.0752 6.55591H70.6503L70.2846 9.15581Z" fill="white"/>
<path d="M72.878 17.4492H70.1304L71.6518 6.57422H74.2645L76.781 12.5638L77.5835 6.57422H80.3182L78.7967 17.4492H76.0172L73.6548 12.0052L72.878 17.4492Z" fill="white"/>
<path d="M87.2003 17.5501H80.0103L81.5317 6.67505H84.2985L83.143 14.8346H87.5726L87.2003 17.5501Z" fill="white"/>
<path d="M94.1455 10.3985L92.9772 12.9278H94.6013L94.1455 10.3985ZM93.4072 6.67505H95.9109L98.2733 17.5501H95.3268L94.9095 15.3738H92.0078L91.0385 17.5501H88.0854L93.4072 6.67505Z" fill="white"/>
<path d="M107.088 15.2458C106.792 15.6888 106.471 16.0676 106.124 16.3758C105.772 16.6902 105.412 16.9472 105.033 17.1396C104.655 17.3323 104.269 17.4734 103.891 17.5635C103.512 17.6469 103.159 17.6918 102.818 17.6918C102.286 17.6918 101.772 17.6148 101.278 17.4606C100.79 17.3065 100.366 17.0756 100.007 16.7609C99.6472 16.4465 99.3777 16.0612 99.1978 15.5926C99.0181 15.1305 98.9732 14.5846 99.0503 13.9747L99.5765 10.2706C99.6666 9.65431 99.872 9.11509 100.18 8.64654C100.495 8.18438 100.873 7.79268 101.316 7.49103C101.766 7.18277 102.26 6.94542 102.799 6.79129C103.345 6.63078 103.891 6.55371 104.43 6.55371C104.77 6.55371 105.11 6.59224 105.451 6.67569C105.797 6.75276 106.124 6.89389 106.446 7.08017C106.76 7.27283 107.049 7.52318 107.299 7.85059C107.55 8.17139 107.749 8.57586 107.903 9.0574L105.54 9.96257C105.444 9.73799 105.309 9.55809 105.123 9.42334C104.937 9.28859 104.732 9.19854 104.5 9.14085C104.269 9.08317 104.032 9.07017 103.794 9.10232C103.55 9.13447 103.326 9.19854 103.12 9.29498C102.908 9.3912 102.729 9.51957 102.587 9.68646C102.446 9.84698 102.356 10.046 102.324 10.2706L101.804 13.9747C101.772 14.1868 101.811 14.3792 101.913 14.5397C102.016 14.7066 102.157 14.835 102.331 14.9314C102.51 15.0276 102.716 15.0919 102.947 15.1111C103.178 15.1305 103.409 15.1111 103.647 15.0534C103.884 15.0019 104.109 14.8929 104.321 14.7388C104.539 14.5846 104.712 14.3856 104.847 14.1419L107.088 15.2458Z" fill="white"/>
<path d="M116.634 9.2564H111.839L111.608 10.8871H116.365L116.025 13.3265H111.268L111.043 14.9571H115.832L115.479 17.5507H107.904L109.425 6.65649H117L116.634 9.2564Z" fill="white"/>
</g>
<defs>
<clipPath id="clip0">
<rect width="117" height="30" fill="white"/>
</clipPath>
</defs>
</svg>